<?xml version="1.0" encoding="utf-8"?>
<svg viewBox="0 0 90 60" xmlns="http://www.w3.org/2000/svg">
  <rect width="90" height="60" rx="15" fill="#FF2056"/>
  <path d="M 35 15 C 35 14 36 13 37 13 C 37.4 13 37.8 13.1 38.1 13.3 L 61.1 28.3 C 62 28.9 62.2 30.1 61.6 31 C 61.4 31.2 61.3 31.4 61.1 31.5 L 38.1 46.5 C 37.2 47.1 36 46.8 35.4 45.9 C 35.2 45.6 35.1 45.2 35.1 44.8 L 35.1 15 L 35 15 Z" fill="white" style="transform-origin: 48.472px 29.906px 0px;" transform="matrix(0, 1, -1, 0, 0, 0)"/>
  <path style="fill: rgb(216, 216, 216); stroke: rgb(0, 0, 0);" d="M 4.215 17.284 L 30.654 25.35"/>
  <path style="fill: rgb(216, 216, 216); stroke: rgb(0, 0, 0);" d="M 9.817 33.193 L 29.534 32.968"/>
  <path style="fill: rgb(216, 216, 216); stroke: rgb(0, 0, 0);" d="M 16.763 44.844 L 29.982 39.018"/>
  <path style="fill: rgb(216, 216, 216); stroke: rgb(0, 0, 0);" d="M 65.347 25.614 L 87.591 19.258"/>
  <path style="fill: rgb(216, 216, 216); stroke: rgb(0, 0, 0);" d="M 65.545 31.175 L 82.228 32.168"/>
  <path style="fill: rgb(216, 216, 216); stroke: rgb(0, 0, 0);" d="M 65.942 36.538 L 80.044 42.694"/>
</svg>